<svg width="100" height="100" viewBox="0 0 100 100" fill="none" xmlns="http://www.w3.org/2000/svg">
  <!-- Classic beige computer case -->
  <rect x="15" y="20" width="70" height="60" rx="3" fill="#e8dcc0" stroke="#8b7355" stroke-width="2"/>

  <!-- Screen bezel -->
  <rect x="22" y="27" width="56" height="38" rx="1" fill="#3a3a3a" stroke="#000" stroke-width="1.5"/>

  <!-- CRT Screen with slight curve feel -->
  <rect x="26" y="31" width="48" height="30" fill="#1a4d2e"/>

  <!-- Green phosphor glow -->
  <rect x="26" y="31" width="48" height="30" fill="#33ff33" opacity="0.3"/>

  <!-- Terminal text effect -->
  <rect x="29" y="35" width="20" height="2" fill="#33ff33"/>
  <rect x="29" y="40" width="30" height="2" fill="#33ff33"/>
  <rect x="29" y="45" width="15" height="2" fill="#33ff33"/>
  <rect x="29" y="50" width="25" height="2" fill="#33ff33"/>
  <rect x="29" y="55" width="18" height="2" fill="#33ff33"/>

  <!-- Floppy disk drive -->
  <rect x="25" y="68" width="24" height="8" rx="0.5" fill="#1a1a1a" stroke="#000" stroke-width="1"/>
  <rect x="27" y="70" width="20" height="4" fill="#2a2a2a"/>

  <!-- Vintage LEDs -->
  <circle cx="55" cy="72" r="2.5" fill="#ff0000" opacity="0.8"/>
  <circle cx="62" cy="72" r="2.5" fill="#00ff00" opacity="0.8"/>

  <!-- Ventilation slots -->
  <rect x="66" y="68" width="2" height="8" fill="#8b7355"/>
  <rect x="70" y="68" width="2" height="8" fill="#8b7355"/>
  <rect x="74" y="68" width="2" height="8" fill="#8b7355"/>
</svg>
